<svg xmlns="http://www.w3.org/2000/svg" width="640" height="320" font-family="sans-serif">
  <rect width="640" height="320" fill="white"/>
  <text x="320.0" y="24" font-size="15" font-weight="bold" text-anchor="middle" fill="#0f172a">AG2 — edit-distance drops as manager feedback lands (independently defined manager)</text>
  <line x1="48" y1="272" x2="592" y2="272" stroke="#94a3b8"/>
  <line x1="48" y1="48" x2="48" y2="272" stroke="#94a3b8"/>
  <text x="320.0" y="308" font-size="12" text-anchor="middle" fill="#475569">feedback round</text>
  <text x="16" y="160.0" font-size="12" text-anchor="middle" fill="#475569" transform="rotate(-90 16 160.0)">edit-distance</text>
  <polyline points="48.0,48.0 76.6,94.7 105.3,127.3 133.9,108.7 162.5,132.0 191.2,150.7 219.8,155.3 248.4,150.7 277.1,169.3 305.7,178.7 334.3,192.7 362.9,188.0 391.6,206.7 420.2,211.3 448.8,225.3 477.5,234.7 506.1,248.7 534.7,272.0 563.4,272.0 592.0,272.0" fill="none" stroke="#2563eb" stroke-width="2.5"/>
  <circle cx="48.0" cy="48.0" r="4" fill="#2563eb"/><text x="48.0" y="38.0" font-size="11" text-anchor="middle" fill="#334155">96</text><circle cx="76.6" cy="94.7" r="4" fill="#2563eb"/><text x="76.6" y="84.7" font-size="11" text-anchor="middle" fill="#334155">76</text><circle cx="105.3" cy="127.3" r="4" fill="#2563eb"/><text x="105.3" y="117.3" font-size="11" text-anchor="middle" fill="#334155">62</text><circle cx="133.9" cy="108.7" r="4" fill="#2563eb"/><text x="133.9" y="98.7" font-size="11" text-anchor="middle" fill="#334155">70</text><circle cx="162.5" cy="132.0" r="4" fill="#2563eb"/><text x="162.5" y="122.0" font-size="11" text-anchor="middle" fill="#334155">60</text><circle cx="191.2" cy="150.7" r="4" fill="#2563eb"/><text x="191.2" y="140.7" font-size="11" text-anchor="middle" fill="#334155">52</text><circle cx="219.8" cy="155.3" r="4" fill="#2563eb"/><text x="219.8" y="145.3" font-size="11" text-anchor="middle" fill="#334155">50</text><circle cx="248.4" cy="150.7" r="4" fill="#2563eb"/><text x="248.4" y="140.7" font-size="11" text-anchor="middle" fill="#334155">52</text><circle cx="277.1" cy="169.3" r="4" fill="#2563eb"/><text x="277.1" y="159.3" font-size="11" text-anchor="middle" fill="#334155">44</text><circle cx="305.7" cy="178.7" r="4" fill="#2563eb"/><text x="305.7" y="168.7" font-size="11" text-anchor="middle" fill="#334155">40</text><circle cx="334.3" cy="192.7" r="4" fill="#2563eb"/><text x="334.3" y="182.7" font-size="11" text-anchor="middle" fill="#334155">34</text><circle cx="362.9" cy="188.0" r="4" fill="#2563eb"/><text x="362.9" y="178.0" font-size="11" text-anchor="middle" fill="#334155">36</text><circle cx="391.6" cy="206.7" r="4" fill="#2563eb"/><text x="391.6" y="196.7" font-size="11" text-anchor="middle" fill="#334155">28</text><circle cx="420.2" cy="211.3" r="4" fill="#2563eb"/><text x="420.2" y="201.3" font-size="11" text-anchor="middle" fill="#334155">26</text><circle cx="448.8" cy="225.3" r="4" fill="#2563eb"/><text x="448.8" y="215.3" font-size="11" text-anchor="middle" fill="#334155">20</text><circle cx="477.5" cy="234.7" r="4" fill="#2563eb"/><text x="477.5" y="224.7" font-size="11" text-anchor="middle" fill="#334155">16</text><circle cx="506.1" cy="248.7" r="4" fill="#2563eb"/><text x="506.1" y="238.7" font-size="11" text-anchor="middle" fill="#334155">10</text><circle cx="534.7" cy="272.0" r="4" fill="#2563eb"/><text x="534.7" y="262.0" font-size="11" text-anchor="middle" fill="#334155">0</text><circle cx="563.4" cy="272.0" r="4" fill="#2563eb"/><text x="563.4" y="262.0" font-size="11" text-anchor="middle" fill="#334155">0</text><circle cx="592.0" cy="272.0" r="4" fill="#2563eb"/><text x="592.0" y="262.0" font-size="11" text-anchor="middle" fill="#334155">0</text>
</svg>
