<svg xmlns="http://www.w3.org/2000/svg" width="640" height="320" font-family="sans-serif">
  <rect width="640" height="320" fill="white"/>
  <text x="320.0" y="24" font-size="15" font-weight="bold" text-anchor="middle" fill="#0f172a">AG5 — acceptance rises across batch-retrained policy versions</text>
  <line x1="48" y1="272" x2="592" y2="272" stroke="#94a3b8"/>
  <line x1="48" y1="48" x2="48" y2="272" stroke="#94a3b8"/>
  <text x="320.0" y="310" font-size="12" text-anchor="middle" fill="#475569">policy version (batch retrain)</text>
  <text x="16" y="160.0" font-size="12" text-anchor="middle" fill="#475569" transform="rotate(-90 16 160.0)">acceptance metric</text>
  <polyline points="48.0,155.7 156.8,142.8 265.6,108.3 374.4,86.8 483.2,56.6 592.0,48.0" fill="none" stroke="#16a34a" stroke-width="2.5"/>
  <circle cx="48.0" cy="155.7" r="4" fill="#16a34a"/><text x="48.0" y="145.7" font-size="11" text-anchor="middle" fill="#334155">0.52</text><text x="48.0" y="288.0" font-size="11" text-anchor="middle" fill="#475569">v1</text><circle cx="156.8" cy="142.8" r="4" fill="#16a34a"/><text x="156.8" y="132.8" font-size="11" text-anchor="middle" fill="#334155">0.58</text><text x="156.8" y="288.0" font-size="11" text-anchor="middle" fill="#475569">v2</text><circle cx="265.6" cy="108.3" r="4" fill="#16a34a"/><text x="265.6" y="98.3" font-size="11" text-anchor="middle" fill="#334155">0.73</text><text x="265.6" y="288.0" font-size="11" text-anchor="middle" fill="#475569">v3</text><circle cx="374.4" cy="86.8" r="4" fill="#16a34a"/><text x="374.4" y="76.8" font-size="11" text-anchor="middle" fill="#334155">0.83</text><text x="374.4" y="288.0" font-size="11" text-anchor="middle" fill="#475569">v4</text><circle cx="483.2" cy="56.6" r="4" fill="#16a34a"/><text x="483.2" y="46.6" font-size="11" text-anchor="middle" fill="#334155">0.96</text><text x="483.2" y="288.0" font-size="11" text-anchor="middle" fill="#475569">v5</text><circle cx="592.0" cy="48.0" r="4" fill="#16a34a"/><text x="592.0" y="38.0" font-size="11" text-anchor="middle" fill="#334155">1.00</text><text x="592.0" y="288.0" font-size="11" text-anchor="middle" fill="#475569">v6</text>
</svg>
